<svg width="600" height="600" viewBox="0 0 600 600" fill="none" xmlns="http://www.w3.org/2000/svg">
<g clip-path="url(#clip0_9_4)">
<rect width="600" height="600" rx="16" fill="white"/>
<g filter="url(#filter0_d_9_4)">
<rect x="359" y="499" width="50" height="30" rx="15" fill="#FF75D8"/>
</g>
<path d="M79.5244 252.722C37.5 252.722 0 285.175 0 285.175V478.998H600V211.45C600 211.45 580.5 188.638 549.664 181.251C494.084 167.936 486.326 265.142 437.5 265.142C401.636 265.142 399.159 204.403 351.34 198.867C303.52 193.33 281.949 332.811 204.861 331.239C147.113 330.061 112 252.722 79.5244 252.722Z" fill="url(#paint0_linear_9_4)"/>
<path d="M1 284.759C1 284.759 37.5 252.6 79.5244 252.6C114.5 252.6 147.113 329.811 204.861 330.987C281.949 332.557 303.52 193.308 351.34 198.835C399.159 204.363 401.636 265 437.5 265C486.326 265 494.084 167.956 549.664 181.249C580.5 188.624 600 211.397 600 211.397" stroke="url(#paint1_linear_9_4)" stroke-width="5" stroke-linecap="round"/>
<path opacity="0.3" d="M344 134C344 122.954 352.954 114 364 114H404C415.046 114 424 122.954 424 134V479H344V134Z" fill="url(#paint2_linear_9_4)"/>
<g filter="url(#filter1_d_9_4)">
<circle cx="384" cy="213" r="25" fill="url(#paint3_linear_9_4)"/>
<circle cx="384" cy="213" r="22" stroke="white" stroke-width="6"/>
</g>
<path opacity="0.5" d="M44.8496 518.141C46.5078 518.141 47.4863 517.162 47.4863 515.498V509.545H46.1738V515.486C46.1738 516.453 45.7051 516.969 44.8379 516.969C44.0527 516.969 43.6484 516.465 43.5957 515.82L43.5898 515.768H42.2949L42.3008 515.838C42.3711 517.186 43.2852 518.141 44.8496 518.141ZM50.6035 518.111C51.418 518.111 52.1328 517.689 52.4902 517.027H52.5137V518H53.7852V513.752C53.7852 512.516 52.8301 511.719 51.3242 511.719C49.8066 511.719 48.8867 512.533 48.7988 513.594L48.793 513.658H49.9883L50 513.605C50.1055 513.113 50.5566 512.768 51.2891 512.768C52.0742 512.768 52.5137 513.178 52.5137 513.857V514.32L50.8379 514.42C49.3789 514.508 48.5469 515.164 48.5469 516.236V516.248C48.5469 517.355 49.373 518.111 50.6035 518.111ZM49.8242 516.219V516.207C49.8242 515.686 50.2461 515.352 51.0078 515.305L52.5137 515.211V515.691C52.5137 516.494 51.8398 517.098 50.9492 517.098C50.2695 517.098 49.8242 516.758 49.8242 516.219ZM55.0156 518H56.2812V514.408C56.2812 513.447 56.8555 512.803 57.7461 512.803C58.625 512.803 59.0586 513.324 59.0586 514.25V518H60.3301V514.01C60.3301 512.592 59.5508 511.719 58.1973 511.719C57.2656 511.719 56.6328 512.141 56.3105 512.768H56.2812V511.836H55.0156V518Z" fill="#454459"/>
<path d="M373.424 518H374.789V511.988H374.83L377.268 518H378.293L380.73 511.988H380.777V518H382.137V509.545H380.391L377.801 516.002H377.76L375.17 509.545H373.424V518ZM385.166 518.105C385.986 518.105 386.678 517.695 387.035 517.045H387.07V518H388.529V513.729C388.529 512.48 387.527 511.66 385.975 511.66C384.398 511.66 383.443 512.486 383.355 513.588L383.35 513.658H384.703L384.715 513.605C384.809 513.148 385.23 512.826 385.922 512.826C386.66 512.826 387.07 513.207 387.07 513.834V514.262L385.447 514.361C383.941 514.455 383.086 515.117 383.086 516.219V516.23C383.086 517.338 383.924 518.105 385.166 518.105ZM384.539 516.172V516.166C384.539 515.674 384.932 515.363 385.652 515.316L387.07 515.229V515.697C387.07 516.436 386.438 516.992 385.6 516.992C384.961 516.992 384.539 516.682 384.539 516.172ZM390.516 520.062C391.811 520.062 392.537 519.576 393.012 518.211L395.244 511.789H393.709L392.25 516.758H392.209L390.756 511.789H389.162L391.395 518.006L391.307 518.258C391.119 518.779 390.809 518.938 390.252 518.938C390.047 518.938 389.877 518.908 389.766 518.885V519.998C389.941 520.027 390.234 520.062 390.516 520.062Z" fill="white"/>
<path opacity="0.5" d="M124.088 518H125.4V514.461H129.033V513.354H125.4V510.676H129.367V509.545H124.088V518ZM132.777 518.123C134.271 518.123 135.221 517.232 135.42 516.254L135.432 516.189H134.23L134.213 516.236C134.055 516.699 133.557 517.086 132.807 517.086C131.799 517.086 131.16 516.406 131.137 515.24H135.502V514.812C135.502 512.961 134.441 511.719 132.713 511.719C130.984 511.719 129.871 513.008 129.871 514.936V514.941C129.871 516.887 130.967 518.123 132.777 518.123ZM132.719 512.756C133.545 512.756 134.143 513.277 134.248 514.344H131.154C131.266 513.312 131.898 512.756 132.719 512.756ZM139.762 518.123C141.326 518.123 142.34 516.881 142.34 514.918V514.912C142.34 512.949 141.32 511.719 139.773 511.719C138.9 511.719 138.197 512.158 137.828 512.885H137.799V509.545H136.533V518H137.799V516.957H137.828C138.191 517.678 138.877 518.123 139.762 518.123ZM139.428 517.033C138.467 517.033 137.793 516.201 137.793 514.918V514.912C137.793 513.635 138.473 512.803 139.428 512.803C140.424 512.803 141.045 513.611 141.045 514.912V514.918C141.045 516.23 140.424 517.033 139.428 517.033Z" fill="#454459"/>
<path opacity="0.5" d="M208.23 518H209.426V511.76H209.467L212.016 518H212.988L215.537 511.76H215.578V518H216.773V509.545H215.262L212.52 516.295H212.484L209.748 509.545H208.23V518ZM219.826 518.111C220.641 518.111 221.355 517.689 221.713 517.027H221.736V518H223.008V513.752C223.008 512.516 222.053 511.719 220.547 511.719C219.029 511.719 218.109 512.533 218.021 513.594L218.016 513.658H219.211L219.223 513.605C219.328 513.113 219.779 512.768 220.512 512.768C221.297 512.768 221.736 513.178 221.736 513.857V514.32L220.061 514.42C218.602 514.508 217.77 515.164 217.77 516.236V516.248C217.77 517.355 218.596 518.111 219.826 518.111ZM219.047 516.219V516.207C219.047 515.686 219.469 515.352 220.23 515.305L221.736 515.211V515.691C221.736 516.494 221.062 517.098 220.172 517.098C219.492 517.098 219.047 516.758 219.047 516.219ZM224.238 518H225.504V514.326C225.504 513.406 226.008 512.873 226.822 512.873C227.068 512.873 227.291 512.902 227.391 512.943V511.766C227.291 511.748 227.133 511.719 226.951 511.719C226.248 511.719 225.732 512.17 225.533 512.891H225.504V511.836H224.238V518Z" fill="#454459"/>
<path opacity="0.5" d="M463.133 518.141C464.791 518.141 465.77 517.162 465.77 515.498V509.545H464.457V515.486C464.457 516.453 463.988 516.969 463.121 516.969C462.336 516.969 461.932 516.465 461.879 515.82L461.873 515.768H460.578L460.584 515.838C460.654 517.186 461.568 518.141 463.133 518.141ZM469.291 518.123C470.229 518.123 470.855 517.695 471.178 517.074H471.207V518H472.479V511.836H471.207V515.434C471.207 516.395 470.633 517.033 469.742 517.033C468.863 517.033 468.43 516.518 468.43 515.586V511.836H467.164V515.832C467.164 517.25 467.938 518.123 469.291 518.123ZM473.732 518H474.998V514.408C474.998 513.447 475.572 512.803 476.463 512.803C477.342 512.803 477.775 513.324 477.775 514.25V518H479.047V514.01C479.047 512.592 478.268 511.719 476.914 511.719C475.982 511.719 475.35 512.141 475.027 512.768H474.998V511.836H473.732V518Z" fill="#454459"/>
<path opacity="0.5" d="M291.354 518H292.73L293.51 515.715H296.768L297.541 518H298.918L295.848 509.545H294.43L291.354 518ZM295.127 510.945H295.15L296.41 514.66H293.861L295.127 510.945ZM299.703 520.051H300.969V516.963H300.998C301.361 517.678 302.07 518.123 302.943 518.123C304.49 518.123 305.504 516.887 305.504 514.924V514.918C305.504 512.949 304.496 511.719 302.926 511.719C302.047 511.719 301.367 512.164 300.998 512.896H300.969V511.836H299.703V520.051ZM302.598 517.033C301.643 517.033 300.963 516.201 300.963 514.924V514.918C300.963 513.635 301.637 512.803 302.598 512.803C303.588 512.803 304.215 513.605 304.215 514.918V514.924C304.215 516.225 303.594 517.033 302.598 517.033ZM306.488 518H307.754V514.326C307.754 513.406 308.258 512.873 309.072 512.873C309.318 512.873 309.541 512.902 309.641 512.943V511.766C309.541 511.748 309.383 511.719 309.201 511.719C308.498 511.719 307.982 512.17 307.783 512.891H307.754V511.836H306.488V518Z" fill="#454459"/>
<path opacity="0.5" d="M545.096 518.141C546.754 518.141 547.732 517.162 547.732 515.498V509.545H546.42V515.486C546.42 516.453 545.951 516.969 545.084 516.969C544.299 516.969 543.895 516.465 543.842 515.82L543.836 515.768H542.541L542.547 515.838C542.617 517.186 543.531 518.141 545.096 518.141ZM551.254 518.123C552.191 518.123 552.818 517.695 553.141 517.074H553.17V518H554.441V511.836H553.17V515.434C553.17 516.395 552.596 517.033 551.705 517.033C550.826 517.033 550.393 516.518 550.393 515.586V511.836H549.127V515.832C549.127 517.25 549.9 518.123 551.254 518.123ZM555.742 518H557.008V509.545H555.742V518Z" fill="#454459"/>
<path opacity="0.1" d="M0 479H600" stroke="#454459"/>
</g>
<defs>
<filter id="filter0_d_9_4" x="334" y="479" width="100" height="80" filterUnits="userSpaceOnUse" color-interpolation-filters="sRGB">
<feFlood flood-opacity="0" result="BackgroundImageFix"/>
<feColorMatrix in="SourceAlpha" type="matrix" values="0 0 0 0 0 0 0 0 0 0 0 0 0 0 0 0 0 0 127 0" result="hardAlpha"/>
<feOffset dy="5"/>
<feGaussianBlur stdDeviation="12.5"/>
<feColorMatrix type="matrix" values="0 0 0 0 0 0 0 0 0 0 0 0 0 0 0 0 0 0 0.1 0"/>
<feBlend mode="normal" in2="BackgroundImageFix" result="effect1_dropShadow_9_4"/>
<feBlend mode="normal" in="SourceGraphic" in2="effect1_dropShadow_9_4" result="shape"/>
</filter>
<filter id="filter1_d_9_4" x="334" y="168" width="100" height="100" filterUnits="userSpaceOnUse" color-interpolation-filters="sRGB">
<feFlood flood-opacity="0" result="BackgroundImageFix"/>
<feColorMatrix in="SourceAlpha" type="matrix" values="0 0 0 0 0 0 0 0 0 0 0 0 0 0 0 0 0 0 127 0" result="hardAlpha"/>
<feOffset dy="5"/>
<feGaussianBlur stdDeviation="12.5"/>
<feColorMatrix type="matrix" values="0 0 0 0 0 0 0 0 0 0 0 0 0 0 0 0 0 0 0.1 0"/>
<feBlend mode="normal" in2="BackgroundImageFix" result="effect1_dropShadow_9_4"/>
<feBlend mode="normal" in="SourceGraphic" in2="effect1_dropShadow_9_4" result="shape"/>
</filter>
<linearGradient id="paint0_linear_9_4" x1="300" y1="179.998" x2="300" y2="478.998" gradientUnits="userSpaceOnUse">
<stop stop-color="#B09FFF" stop-opacity="0.3"/>
<stop offset="1" stop-color="#8D79F6" stop-opacity="0"/>
</linearGradient>
<linearGradient id="paint1_linear_9_4" x1="300.5" y1="179.998" x2="300.5" y2="331" gradientUnits="userSpaceOnUse">
<stop stop-color="#B09FFF"/>
<stop offset="1" stop-color="#8D79F6"/>
</linearGradient>
<linearGradient id="paint2_linear_9_4" x1="384" y1="114" x2="384" y2="479" gradientUnits="userSpaceOnUse">
<stop stop-color="#B09FFF" stop-opacity="0.15"/>
<stop offset="1" stop-color="#8D79F6"/>
</linearGradient>
<linearGradient id="paint3_linear_9_4" x1="384" y1="188" x2="384" y2="238" gradientUnits="userSpaceOnUse">
<stop stop-color="#FD95D3"/>
<stop offset="1" stop-color="#FF5CBE"/>
</linearGradient>
<clipPath id="clip0_9_4">
<rect width="600" height="600" rx="16" fill="white"/>
</clipPath>
</defs>
</svg>
